<svg xmlns="http://www.w3.org/2000/svg"  viewBox="0 0 100 100" width="50px" height="50px" baseProfile="basic"><circle cx="78" cy="14" r="1" fill="#f1bc19"/><circle cx="50" cy="50" r="38" fill="#f9dbd2"/><circle cx="84" cy="16" r="4" fill="#f1bc19"/><circle cx="14" cy="26" r="2" fill="#ee3e54"/><circle cx="78" cy="77" r="2" fill="#fbcd59"/><circle cx="17" cy="78" r="4" fill="#fbcd59"/><circle cx="24" cy="83" r="2" fill="#ee3e54"/><circle cx="66.483" cy="78.517" r="2.483" fill="#fff"/><circle cx="16" cy="48" r="1" fill="#fff"/><circle cx="86" cy="31" r="1" fill="#f1bc19"/><circle cx="80" cy="66" r="2" fill="#fff"/><path fill="#fff" d="M68.358,41.809c1.271-9.879-1.112-12.722-2.275-12.975c-3.776-0.823-9.202,3.019-11.373,4.65 c-1.762-0.376-3.59-0.598-5.474-0.598c-3.481,0-6.73,0.702-9.619,1.916c-1.798-0.918-5.969-2.787-9.183-2.215 c-0.711,0.127-4.339,3.892-1.023,11.227c-1.265,2.382-1.986,5.019-1.986,7.796c0,10.258,8.574,15.726,22.412,15.728 c13.237,0.002,21.961-5.47,21.961-15.728C71.799,48.025,70.519,44.671,68.358,41.809z"/><path fill="#472b29" d="M49.849,68.038c-0.004,0-0.007,0-0.011,0c-14.688-0.003-23.112-5.991-23.112-16.429 c0-2.698,0.643-5.327,1.91-7.82c-2.161-5.002-1.151-8.299-0.343-9.834c0.581-1.104,1.411-1.95,2.019-2.059 c3.185-0.561,7.105,1.029,9.336,2.135c4.585-1.857,9.608-2.367,14.897-1.297c4.929-3.657,8.851-5.205,11.688-4.585 c1.643,0.358,4.072,3.603,2.855,13.468c2.232,3.047,3.411,6.496,3.411,9.992c0,5.183-2.186,9.433-6.318,12.288 C62.26,66.606,56.612,68.038,49.849,68.038z M31.719,33.179c-0.399,0-0.788,0.03-1.162,0.097c-0.473,0.228-3.514,3.603-0.507,10.25 l0.142,0.313l-0.161,0.304c-1.264,2.379-1.904,4.891-1.904,7.468c0,9.548,7.914,15.025,21.712,15.028c0.003,0,0.007,0,0.011,0 c6.479,0,11.851-1.346,15.536-3.892c3.791-2.62,5.714-6.367,5.714-11.137c0-3.277-1.141-6.521-3.299-9.379l-0.172-0.228 l0.036-0.284c1.229-9.549-1.052-12.054-1.73-12.202c-1.69-0.365-4.935,0.117-10.802,4.526l-0.255,0.191l-0.313-0.066 c-5.231-1.117-10.183-0.608-14.675,1.278l-0.3,0.126l-0.29-0.148C37.881,34.7,34.561,33.179,31.719,33.179z"/><path fill="#472b29" d="M31.261,46.28c-0.034,0-0.068-0.007-0.102-0.021c-0.126-0.056-0.183-0.204-0.127-0.33	c0.148-0.335,0.311-0.668,0.485-0.997c0.064-0.123,0.218-0.165,0.338-0.104c0.122,0.064,0.168,0.216,0.104,0.338	c-0.169,0.319-0.325,0.641-0.47,0.966C31.448,46.225,31.356,46.28,31.261,46.28z"/><path fill="#472b29" d="M30.06,51.859c-0.138,0-0.25-0.112-0.25-0.25c0-1.444,0.23-2.884,0.685-4.277	c0.042-0.131,0.185-0.206,0.314-0.16c0.132,0.042,0.203,0.184,0.16,0.314c-0.438,1.344-0.659,2.731-0.659,4.123	C30.31,51.747,30.197,51.859,30.06,51.859z"/><polygon fill="#472b29" points="65.993,43.594 65.265,42.629 65.42,41.431 66.072,41.515 65.952,42.447 66.519,43.197"/><path fill="#472b29" d="M55.334,36.639c-0.1,0-0.198-0.045-0.263-0.131c-0.109-0.146-0.081-0.352,0.064-0.461l0.958-0.721	c0.146-0.109,0.352-0.081,0.461,0.064s0.081,0.352-0.064,0.461l-0.958,0.721C55.473,36.617,55.403,36.639,55.334,36.639z"/><path fill="#472b29" d="M40.639,37.479c-0.098,0-0.19-0.058-0.23-0.153c-0.054-0.127,0.007-0.273,0.134-0.327	c0.414-0.174,0.833-0.335,1.256-0.483c1.646-0.575,3.371-0.956,5.129-1.132c0.129-0.015,0.26,0.088,0.273,0.225	s-0.087,0.26-0.225,0.273c-1.718,0.171-3.404,0.543-5.012,1.106c-0.413,0.145-0.824,0.302-1.229,0.472	C40.704,37.474,40.671,37.479,40.639,37.479z"/><path fill="#472b29" d="M23.063,56.007c-0.315,0-0.602-0.215-0.68-0.535c-0.091-0.376,0.14-0.754,0.516-0.846	c5.001-1.211,8.332-1.068,8.472-1.063c0.386,0.019,0.684,0.346,0.666,0.732c-0.019,0.386-0.337,0.693-0.732,0.666	c-0.03-0.001-3.286-0.136-8.075,1.026C23.173,56,23.117,56.007,23.063,56.007z"/><path fill="#472b29" d="M25.622,61.12c-0.23,0-0.456-0.113-0.59-0.322c-0.208-0.325-0.114-0.757,0.21-0.966	c0.091-0.059,2.27-1.437,6.419-2.205c0.384-0.07,0.745,0.181,0.815,0.562c0.07,0.38-0.181,0.745-0.562,0.815	c-3.853,0.713-5.896,1.994-5.917,2.007C25.882,61.085,25.751,61.12,25.622,61.12z"/><path fill="#472b29" d="M27.877,66.843c-0.17,0-0.34-0.062-0.475-0.186c-0.282-0.262-0.302-0.702-0.041-0.986	c0.071-0.077,1.802-1.929,6.972-4.515c0.349-0.175,0.767-0.032,0.939,0.313c0.173,0.346,0.033,0.767-0.313,0.939	c-4.894,2.447-6.553,4.194-6.569,4.212C28.253,66.768,28.065,66.843,27.877,66.843z"/><path fill="#f94b6c" d="M59.615,35.008c0,0-1.203-5.866-5.866-6.468c0,0-2.858-0.451-5.114,5.565c0,0-1.805,5.565,1.805,7.22	c0,0,2.407,0.903,6.919-1.354L59.615,35.008z"/><path fill="#472b29" d="M51.925,32.104c-0.054,0-0.107-0.017-0.154-0.051c-0.115-0.085-0.14-0.248-0.055-0.363	c0.705-0.955,1.406-1.367,1.826-1.435c0.14-0.02,0.275,0.074,0.298,0.216s-0.074,0.274-0.216,0.298	c-0.245,0.039-0.835,0.342-1.49,1.229C52.083,32.068,52.004,32.104,51.925,32.104z"/><path fill="#472b29" d="M51.841,39.788c-0.373,0-0.626-0.039-0.744-0.063l-0.076-0.028c-1.966-1.098-0.774-4.997-0.761-5.036	c0.213-0.64,0.452-1.226,0.71-1.74c0.064-0.129,0.22-0.181,0.349-0.116c0.128,0.064,0.18,0.221,0.116,0.349	c-0.248,0.493-0.478,1.056-0.683,1.672c-0.228,0.685-0.848,3.598,0.487,4.398c0.111,0.02,0.313,0.045,0.601,0.045	c0.144,0,0.26,0.116,0.26,0.26S51.984,39.788,51.841,39.788z"/><path fill="#f94b6c" d="M62.473,36.512c0,0,4.964-2.407,7.22-0.451c2.256,1.955,1.655,4.964,0,7.37	c-1.111,1.616-2.708,2.858-4.513,2.708c-1.805-0.15-3.61-1.354-4.663-4.212L62.473,36.512z"/><path fill="#472b29" d="M68.065,42.572c-0.051,0-0.103-0.015-0.147-0.046c-0.118-0.081-0.147-0.243-0.066-0.361	c0.688-1.001,1.355-2.931,0.819-3.949c-0.243-0.461-0.709-0.686-1.426-0.686c-0.144,0-0.26-0.116-0.26-0.26s0.116-0.26,0.26-0.26	c1.139,0,1.653,0.524,1.885,0.964c0.66,1.254-0.117,3.418-0.851,4.485C68.229,42.533,68.147,42.572,68.065,42.572z"/><path fill="#472b29" d="M68.34,51.201c-0.296,0-0.57-0.188-0.666-0.485c-0.119-0.368,0.083-0.763,0.451-0.881	c0.197-0.064,4.865-1.55,9.041-0.929c0.383,0.057,0.646,0.412,0.59,0.795c-0.058,0.383-0.411,0.642-0.795,0.59	c-3.853-0.57-8.36,0.862-8.406,0.876C68.483,51.19,68.411,51.201,68.34,51.201z"/><path fill="#472b29" d="M75.861,55.714c-0.038,0-0.077-0.003-0.116-0.01c-2.616-0.437-6.018-0.441-6.052-0.441	c-0.387,0-0.7-0.313-0.7-0.7s0.313-0.7,0.7-0.7c0.144,0,3.549,0.006,6.282,0.461c0.381,0.063,0.639,0.424,0.575,0.806	C76.494,55.471,76.197,55.714,75.861,55.714z"/><path fill="#472b29" d="M74.957,61.881c-0.112,0-0.227-0.027-0.332-0.085c-3.457-1.871-6.794-2.323-6.827-2.327	c-0.383-0.05-0.653-0.401-0.604-0.785c0.05-0.383,0.398-0.646,0.785-0.604c0.146,0.02,3.63,0.491,7.312,2.485	c0.34,0.184,0.467,0.608,0.282,0.948C75.447,61.748,75.206,61.881,74.957,61.881z"/><ellipse cx="38.989" cy="55.478" fill="#472b29" rx="1.978" ry="2.501"/><ellipse cx="60.984" cy="53.521" fill="#472b29" rx="1.977" ry="2.514"/><g><ellipse cx="50.769" cy="58.539" fill="#ef9922" rx="2.923" ry="2.226" transform="rotate(-2.987 50.816 58.59)"/><path fill="#472b29" d="M50.685,61.018c-1.652,0-3.016-1.005-3.085-2.313c-0.07-1.362,1.293-2.546,3.04-2.639 c0.84-0.052,1.634,0.166,2.252,0.587c0.64,0.437,1.011,1.048,1.046,1.722c0.071,1.362-1.292,2.546-3.04,2.639l0,0 C50.826,61.016,50.755,61.018,50.685,61.018z M50.856,56.561c-0.063,0-0.127,0.001-0.191,0.005 c-1.471,0.077-2.622,1.025-2.565,2.113c0.057,1.089,1.298,1.922,2.772,1.834c1.472-0.077,2.623-1.025,2.565-2.113 c-0.026-0.514-0.32-0.987-0.828-1.334C52.128,56.737,51.512,56.561,50.856,56.561z"/></g><path fill="#472b29" d="M55.704,38.728c-1.304,0-2.365-1.062-2.365-2.365c0-1.305,1.062-2.366,2.365-2.366	c0.825,0,1.603,0.439,2.028,1.147l-0.445,0.268c-0.337-0.561-0.929-0.896-1.583-0.896c-1.018,0-1.846,0.828-1.846,1.847	c0,1.018,0.828,1.846,1.846,1.846V38.728z"/><path fill="#472b29" d="M64.203,42.482c-0.358,0-0.983-0.218-1.23-0.324l0.205-0.477c0.274,0.117,0.797,0.281,1.025,0.281	c1.541,0,1.771-1.063,1.771-1.696c0-0.936-0.794-1.697-1.771-1.697v-0.52c1.263,0,2.29,0.994,2.29,2.217	C66.493,41.633,65.615,42.482,64.203,42.482z"/><path fill="#472b29" d="M51.941,42.022c-0.989,0-1.522-0.194-1.565-0.211c-3.967-1.842-2.17-7.619-2.091-7.864	c2.353-6.362,5.492-5.942,5.622-5.92c3.871,0.506,5.486,4.419,6,6.078l-0.992,0.307c-0.454-1.467-1.867-4.927-5.157-5.357	c-0.023,0.004-2.472-0.229-4.491,5.23c-0.009,0.029-1.59,5.128,1.513,6.57l0,0c0.009,0,1.784,0.59,5.075-0.752l0.393,0.961	C54.378,41.827,52.931,42.022,51.941,42.022z"/><path fill="#472b29" d="M65.467,46.671c-0.109,0-0.22-0.005-0.329-0.014c-1.938-0.162-3.582-1.389-4.632-3.455l0.926-0.471	c1.129,2.222,2.686,2.799,3.792,2.891c1.416,0.129,2.876-0.788,4.042-2.484c0.683-0.994,2.708-4.412,0.088-6.684	c-1.483-1.287-4.545-0.315-5.792,0.163l-0.371-0.971c1.767-0.675,5.006-1.571,6.843,0.022c2.6,2.253,1.75,5.64,0.088,8.057	C68.823,45.613,67.144,46.671,65.467,46.671z"/><path fill="#472b29" d="M28.629,46.141c-0.093,0-0.186-0.019-0.276-0.057c-0.354-0.152-0.52-0.564-0.367-0.92	c0.946-2.203,2.058-3.33,2.104-3.377c0.273-0.273,0.717-0.273,0.99,0c0.272,0.273,0.273,0.715,0.001,0.988l0,0	c-0.009,0.01-0.978,1.004-1.809,2.941C29.158,45.981,28.9,46.141,28.629,46.141z"/><circle cx="59.916" cy="38.769" r="4.212" fill="#f94b6c"/><path fill="#472b29" d="M59.916,43.5c-2.608,0-4.731-2.123-4.731-4.731s2.123-4.731,4.731-4.731	c2.426,0,4.449,1.818,4.705,4.229c0.018,0.165,0.026,0.333,0.026,0.503C64.647,41.377,62.524,43.5,59.916,43.5z M59.916,35.076	c-2.036,0-3.692,1.656-3.692,3.692s1.656,3.692,3.692,3.692s3.692-1.656,3.692-3.692c0-0.133-0.007-0.264-0.021-0.394	C63.389,36.494,61.81,35.076,59.916,35.076z"/></svg>