<?xml version="1.0" encoding="utf-8"?>
<!-- Generator: Adobe Illustrator 26.3.1, SVG Export Plug-In . SVG Version: 6.00 Build 0)  -->
<svg version="1.1" id="Light" xmlns="http://www.w3.org/2000/svg" xmlns:xlink="http://www.w3.org/1999/xlink" x="0px" y="0px"
	 viewBox="0 0 24 24" style="enable-background:new 0 0 24 24;" xml:space="preserve">
<style type="text/css">
	.st0{fill:#004D86;}
</style>
<g>
	<path class="st0" d="M15.4,23.3c-0.1,0-0.2,0-0.3-0.1c-3-2.5-6.8-3.9-10.7-3.9c-1.3,0-2.6,0.2-3.8,0.5c0,0-0.1,0-0.1,0
		c-0.2,0-0.4-0.2-0.5-0.4c0-0.1,0-0.3,0.1-0.4s0.2-0.2,0.3-0.2c1.3-0.3,2.7-0.5,4.1-0.5c0.5,0,1,0,1.5,0.1v-3.1H1.4
		c-0.4,0-0.7-0.2-1-0.4c-0.6-0.6-0.6-1.5,0-2l1.2-1.6c-0.2-0.1-0.4-0.2-0.5-0.3c-0.3-0.3-0.4-0.6-0.4-1s0.1-0.8,0.4-1l1.8-2.2
		C2.7,6.7,2.6,6.6,2.5,6.5C2,6,1.8,5.1,2.5,4.3l2.9-3.1c0,0,0,0,0.1-0.1c0.3-0.3,0.6-0.4,1-0.4c0.4,0,0.8,0.2,1.1,0.5l2.9,3.1
		c0.7,0.8,0.5,1.7,0,2.2c-0.1,0.1-0.3,0.2-0.4,0.3l1.8,2.2c0.2,0.2,0.4,0.6,0.4,1c0,0.4-0.2,0.7-0.4,1c-0.1,0.1-0.3,0.2-0.5,0.3
		l1.2,1.6c0.3,0.3,0.4,0.6,0.4,1c0,0.4-0.1,0.7-0.4,1c-0.3,0.3-0.6,0.4-1,0.4H7v3.2c3.2,0.5,6.3,1.8,8.8,3.9
		c0.1,0.1,0.2,0.2,0.2,0.3c0,0.1,0,0.3-0.1,0.4C15.7,23.2,15.6,23.3,15.4,23.3z M2.8,10.1c0.1,0,0.2,0,0.3,0.1
		c0.2,0.2,0.2,0.5,0.1,0.7l-2,2.6c0,0,0,0,0,0C1,13.7,1,14,1.1,14.1c0.1,0.1,0.2,0.1,0.3,0.1h10.1c0.1,0,0.2,0,0.3-0.1
		c0.1-0.1,0.1-0.2,0.1-0.3s0-0.2-0.1-0.3c0,0,0,0,0,0l-2-2.6c-0.2-0.2-0.1-0.5,0.1-0.7c0.1-0.1,0.2-0.1,0.3-0.1
		c0.1,0,0.3,0.1,0.4,0.2c0.1,0.1,0.2,0.1,0.3,0.1c0.1,0,0.2,0,0.3-0.1c0.2-0.2,0.2-0.5,0-0.6L8.5,6.4c-0.2-0.2-0.2-0.5,0-0.7
		c0.1-0.1,0.2-0.1,0.3-0.1c0.1,0,0.3,0.1,0.4,0.1c0.1,0.1,0.2,0.2,0.3,0.2c0.1,0,0.2-0.1,0.2-0.1C10,5.6,10.1,5.3,9.8,5L6.9,1.9
		C6.8,1.8,6.6,1.7,6.5,1.7c-0.1,0-0.2,0-0.3,0.1l0,0L3.2,5C2.9,5.3,3,5.6,3.2,5.8c0,0,0.1,0.1,0.2,0.1c0.1,0,0.2-0.1,0.3-0.2
		C3.9,5.6,4,5.6,4.1,5.6c0.1,0,0.2,0,0.3,0.1c0.2,0.2,0.2,0.5,0,0.7L1.8,9.6C1.7,9.7,1.7,9.8,1.7,9.9c0,0.1,0,0.2,0.1,0.3
		c0.1,0.1,0.2,0.1,0.3,0.1c0,0,0,0,0,0c0.1,0,0.2,0,0.3-0.1C2.5,10.1,2.7,10.1,2.8,10.1z"/>
	<path class="st0" d="M11.6,18.5c-0.2,0-0.3-0.1-0.4-0.2c-0.1-0.2-0.1-0.5,0.2-0.7c2-1.2,4.3-2,6.7-2.3v-2.1h-3.3c0,0-0.1,0-0.1,0
		c-0.2-0.1-0.4-0.2-0.6-0.3c-0.3-0.3-0.5-0.6-0.5-1c0-0.4,0.1-0.8,0.4-1l1.5-2.1c-0.1,0-0.1-0.1-0.2-0.1c-0.5-0.4-0.8-1.4-0.2-2.2
		l2.3-3.1c0.1-0.1,0.2-0.2,0.3-0.3c0.3-0.2,0.6-0.3,0.9-0.3c0.5,0,0.9,0.2,1.2,0.6l2.3,3c0.6,0.8,0.3,1.7-0.2,2.2
		c0,0-0.1,0.1-0.2,0.1l1.6,2.1c0.1,0.2,0.2,0.4,0.3,0.6c0.1,0.4,0,0.8-0.2,1.1c-0.2,0.3-0.5,0.6-0.9,0.7c0,0-0.1,0-0.1,0H19v2
		c0.2,0,0.4,0,0.5,0c1.4,0,2.8,0.2,4.1,0.6c0.3,0.1,0.4,0.3,0.3,0.6c-0.1,0.2-0.3,0.4-0.5,0.4l0,0c0,0-0.1,0-0.1,0
		c-1.3-0.3-2.5-0.5-3.8-0.5c-2.7,0-5.4,0.8-7.7,2.2C11.8,18.5,11.7,18.5,11.6,18.5z M22.2,12.3c0.1,0,0.2-0.1,0.2-0.2
		c0.1-0.1,0.1-0.2,0-0.3c0-0.1,0-0.1-0.1-0.2c0,0,0,0,0,0l-2.3-3C19.9,8.3,20,8,20.2,7.8c0.1-0.1,0.2-0.1,0.3-0.1
		c0.1,0,0.3,0.1,0.4,0.2C20.9,8,21,8,21.1,8c0,0,0,0,0.1,0c0.1-0.1,0.3-0.5,0-0.8l-2.3-3c-0.1-0.1-0.2-0.2-0.4-0.2
		c-0.1,0-0.2,0-0.3,0.1c0,0-0.1,0.1-0.1,0.1l-2.3,3c-0.2,0.3-0.1,0.7,0,0.8c0,0,0.1,0,0.1,0c0,0,0.1,0,0.2-0.1
		c0.1-0.1,0.2-0.2,0.4-0.2c0.1,0,0.2,0,0.3,0.1C17,8,17.1,8.3,16.9,8.5l-2.3,3c-0.1,0.1-0.1,0.2-0.1,0.3c0,0.1,0.1,0.2,0.1,0.3
		c0,0,0.1,0.1,0.1,0.1L22.2,12.3L22.2,12.3z"/>
</g>
</svg>
